<svg width="362" height="96" viewBox="0 0 362 96" fill="none" xmlns="http://www.w3.org/2000/svg">
<path d="M311.447 76.4596C307.217 76.4596 303.51 75.5718 300.324 73.7963C297.191 72.0208 294.736 69.5663 292.961 66.433C291.238 63.2997 290.376 59.6964 290.376 55.6231C290.376 51.5499 291.238 47.9727 292.961 44.8916C294.736 41.7583 297.191 39.33 300.324 37.6067C303.457 35.8311 307.113 34.9434 311.291 34.9434C315.26 34.9434 318.706 35.7789 321.631 37.45C324.555 39.0689 326.827 41.3666 328.446 44.3433C330.064 47.3199 330.874 50.7926 330.874 54.7615C330.874 55.4926 330.848 56.1715 330.796 56.7981C330.743 57.4248 330.665 58.0515 330.561 58.6781H296.486V51.7849H322.962L320.926 53.6648C320.926 49.9049 320.064 47.0849 318.341 45.2049C316.617 43.3249 314.215 42.385 311.134 42.385C307.792 42.385 305.129 43.5338 303.144 45.8316C301.212 48.1293 300.246 51.4454 300.246 55.7798C300.246 60.062 301.212 63.352 303.144 65.6497C305.129 67.8952 307.922 69.018 311.526 69.018C313.615 69.018 315.442 68.6263 317.009 67.843C318.576 67.0597 319.725 65.8586 320.456 64.2397H329.777C328.472 67.9997 326.252 70.9763 323.119 73.1696C320.038 75.3629 316.147 76.4596 311.447 76.4596Z" fill="#F8F8F8"/>
<path d="M275.512 75.6728V19.2734H285.382V75.6728H275.512Z" fill="#F8F8F8"/>
<path d="M259.092 75.6763C258.831 74.6318 258.622 73.483 258.465 72.2296C258.361 70.9763 258.309 69.4619 258.309 67.6864H257.995V48.7299C257.995 46.641 257.395 45.0744 256.194 44.0299C255.045 42.9333 253.269 42.385 250.867 42.385C248.517 42.385 246.637 42.8288 245.227 43.7166C243.869 44.5521 243.034 45.7794 242.721 47.3982H233.242C233.66 43.6905 235.436 40.6877 238.569 38.39C241.702 36.0922 245.906 34.9434 251.181 34.9434C256.664 34.9434 260.815 36.1967 263.635 38.7033C266.455 41.1577 267.865 44.7871 267.865 49.5915V67.6864C267.865 68.9397 267.944 70.2191 268.1 71.5247C268.309 72.8302 268.596 74.2141 268.962 75.6763H259.092ZM245.227 76.4596C241.206 76.4596 237.995 75.4674 235.592 73.483C233.242 71.4463 232.067 68.7308 232.067 65.3364C232.067 61.6809 233.399 58.7826 236.062 56.6415C238.726 54.5004 242.486 53.0643 247.342 52.3332L259.797 50.4532V56.7198L248.987 58.3648C246.637 58.7303 244.862 59.3831 243.661 60.3231C242.512 61.2631 241.937 62.5686 241.937 64.2397C241.937 65.7542 242.486 66.9291 243.582 67.7647C244.679 68.548 246.193 68.9397 248.126 68.9397C250.946 68.9397 253.296 68.2347 255.175 66.8247C257.055 65.4147 257.995 63.6914 257.995 61.6548L259.092 67.6864C258.048 70.5585 256.324 72.7519 253.922 74.2663C251.572 75.7285 248.674 76.4596 245.227 76.4596Z" fill="#F8F8F8"/>
<path d="M211.16 76.4596C207.139 76.4596 203.587 75.5718 200.506 73.7963C197.478 72.0208 195.075 69.5663 193.3 66.433C191.577 63.2475 190.715 59.6442 190.715 55.6231C190.715 51.6021 191.577 48.051 193.3 44.9699C195.075 41.8366 197.478 39.3822 200.506 37.6067C203.587 35.8311 207.139 34.9434 211.16 34.9434C214.45 34.9434 217.426 35.57 220.09 36.8233C222.753 38.0244 224.946 39.7478 226.669 41.9933C228.393 44.1866 229.489 46.7455 229.959 49.6699H220.481C219.907 47.5288 218.81 45.8577 217.191 44.6566C215.572 43.4555 213.614 42.8549 211.316 42.8549C209.175 42.8549 207.321 43.3772 205.755 44.4216C204.24 45.466 203.065 46.9543 202.23 48.8866C201.394 50.8188 200.976 53.0643 200.976 55.6231C200.976 58.2342 201.394 60.5059 202.23 62.4381C203.065 64.3703 204.266 65.8847 205.833 66.9814C207.4 68.0258 209.227 68.548 211.316 68.548C213.614 68.548 215.572 67.9475 217.191 66.7464C218.81 65.5453 219.907 63.8742 220.481 61.7331H229.959C229.489 64.6575 228.367 67.2425 226.591 69.488C224.868 71.6813 222.675 73.4046 220.011 74.658C217.4 75.8591 214.45 76.4596 211.16 76.4596Z" fill="#F8F8F8"/>
<path d="M171.463 76.4596C165.928 76.4596 161.515 75.3107 158.225 73.013C154.935 70.663 153.134 67.4252 152.82 63.2997H161.829C162.09 65.3364 163.056 66.8769 164.727 67.9214C166.398 68.9658 168.643 69.488 171.463 69.488C174.022 69.488 175.928 69.0963 177.182 68.313C178.487 67.4775 179.14 66.3025 179.14 64.7881C179.14 63.6914 178.774 62.8036 178.043 62.1247C177.312 61.3936 175.928 60.7931 173.892 60.3231L167.469 58.8348C163.082 57.8948 159.818 56.4326 157.677 54.4482C155.588 52.4115 154.544 49.8788 154.544 46.8499C154.544 43.1422 155.954 40.2439 158.774 38.155C161.646 36.0139 165.589 34.9434 170.602 34.9434C175.563 34.9434 179.532 36.0139 182.508 38.155C185.537 40.2439 187.208 43.1422 187.522 46.8499H178.513C178.252 45.231 177.417 44.0038 176.007 43.1683C174.649 42.3327 172.769 41.915 170.367 41.915C168.121 41.915 166.424 42.2805 165.275 43.0116C164.126 43.6905 163.552 44.7088 163.552 46.0666C163.552 47.111 163.996 47.9988 164.884 48.7299C165.771 49.4088 167.26 50.0093 169.348 50.5315L176.242 52.0982C180.158 52.986 183.109 54.5265 185.093 56.7198C187.13 58.9131 188.148 61.4981 188.148 64.4747C188.148 68.2869 186.686 71.2374 183.762 73.3263C180.837 75.4152 176.738 76.4596 171.463 76.4596Z" fill="#F8F8F8"/>
<path d="M128.737 75.6762L112.757 35.7266H123.41L136.178 72.4645H130.93L143.698 35.7266H154.038L137.98 75.6762H128.737Z" fill="#F8F8F8"/>
<path d="M94.2228 76.4596C89.9929 76.4596 86.2851 75.5718 83.0996 73.7963C79.9663 72.0208 77.5119 69.5663 75.7363 66.433C74.013 63.2997 73.1514 59.6964 73.1514 55.6231C73.1514 51.5499 74.013 47.9727 75.7363 44.8916C77.5119 41.7583 79.9663 39.33 83.0996 37.6067C86.2329 35.8311 89.8884 34.9434 94.0662 34.9434C98.035 34.9434 101.482 35.7789 104.406 37.45C107.33 39.0689 109.602 41.3666 111.221 44.3433C112.84 47.3199 113.649 50.7926 113.649 54.7615C113.649 55.4926 113.623 56.1715 113.571 56.7981C113.519 57.4248 113.44 58.0515 113.336 58.6781H79.2613V51.7849H105.738L103.701 53.6648C103.701 49.9049 102.839 47.0849 101.116 45.2049C99.3928 43.3249 96.9906 42.385 93.9095 42.385C90.5673 42.385 87.904 43.5338 85.9196 45.8316C83.9874 48.1293 83.0213 51.4454 83.0213 55.7798C83.0213 60.062 83.9874 63.352 85.9196 65.6497C87.904 67.8952 90.6979 69.018 94.3011 69.018C96.39 69.018 98.2178 68.6263 99.7844 67.843C101.351 67.0597 102.5 65.8586 103.231 64.2397H112.553C111.247 67.9997 109.028 70.9763 105.894 73.1696C102.813 75.3629 98.9228 76.4596 94.2228 76.4596Z" fill="#F8F8F8"/>
<path fill-rule="evenodd" clip-rule="evenodd" d="M19.3398 64.8574V32.4105H29.5231V64.8574H19.3398ZM32.5091 75.6709H40.1763C46.2862 75.6709 51.6128 74.4959 56.1561 72.1459C60.7516 69.796 64.3288 66.506 66.8877 62.276C69.4465 57.9939 70.726 53.0067 70.726 47.3145C70.726 41.6224 69.4465 36.6874 66.8877 32.5097C64.381 28.2797 60.83 25.0159 56.2345 22.7181C51.639 20.4204 46.2601 19.2715 40.098 19.2715H32.5091V27.4181H40.098C44.4324 27.4181 48.0879 28.2536 51.0645 29.9247C54.0934 31.5436 56.3911 33.8413 57.9578 36.818C59.5766 39.7946 60.3861 43.2412 60.3861 47.1579C60.3861 51.1267 59.5766 54.6517 57.9578 57.7327C56.3911 60.8138 54.0934 63.216 51.0645 64.9393C48.0357 66.6627 44.3801 67.5243 40.098 67.5243H32.5091V75.6709Z" fill="#F8F8F8"/>
<circle cx="342.545" cy="68.466" r="7.21014" fill="white"/>
</svg>
